<svg xmlns="http://www.w3.org/2000/svg" viewBox="0 0 48 48" width="48" height="48">
  <defs>
    <linearGradient id="grad1" x1="0%" y1="0%" x2="100%" y2="100%">
      <stop offset="0%" style="stop-color:#0e4d6e"/>
      <stop offset="100%" style="stop-color:#1a8a7d"/>
    </linearGradient>
  </defs>
  <circle cx="24" cy="24" r="22" fill="url(#grad1)" stroke="#f0a500" stroke-width="1.5"/>
  <!-- Globe lines -->
  <ellipse cx="24" cy="24" rx="14" ry="22" fill="none" stroke="rgba(255,255,255,0.3)" stroke-width="0.8"/>
  <ellipse cx="24" cy="24" rx="22" ry="14" fill="none" stroke="rgba(255,255,255,0.3)" stroke-width="0.8" transform="rotate(30 24 24)"/>
  <line x1="2" y1="24" x2="46" y2="24" stroke="rgba(255,255,255,0.25)" stroke-width="0.6"/>
  <line x1="24" y1="2" x2="24" y2="46" stroke="rgba(255,255,255,0.25)" stroke-width="0.6"/>
  <!-- Location pin -->
  <path d="M24 10 C19 10 15 14 15 19 C15 26 24 36 24 36 C24 36 33 26 33 19 C33 14 29 10 24 10 Z" fill="#f0a500" opacity="0.9"/>
  <circle cx="24" cy="19" r="4" fill="#0a1628"/>
  <!-- Grid dots -->
  <circle cx="10" cy="14" r="1" fill="rgba(255,255,255,0.5)"/>
  <circle cx="38" cy="14" r="1" fill="rgba(255,255,255,0.5)"/>
  <circle cx="10" cy="34" r="1" fill="rgba(255,255,255,0.5)"/>
  <circle cx="38" cy="34" r="1" fill="rgba(255,255,255,0.5)"/>
</svg>
